<svg width="122" height="122" viewBox="0 0 122 122" fill="none" xmlns="http://www.w3.org/2000/svg">
<g filter="url(#filter0_d)">
<rect x="16" y="16" width="90" height="90" rx="45" fill="white"/>
<path d="M48.8241 65.25C48.8241 67.1652 47.2571 68.7321 45.342 68.7321C43.4268 68.7321 41.8598 67.1652 41.8598 65.25C41.8598 63.3348 43.4268 61.7679 45.342 61.7679C47.2571 61.7679 48.8241 63.3348 48.8241 65.25ZM49.6076 58.2857L51.5445 50.5162C51.6098 50.2768 52.0451 49.9286 52.3062 49.9286H69.0205C69.2817 49.9286 69.717 50.2768 69.7822 50.5162L71.7192 58.2857H49.6076ZM79.467 65.25C79.467 67.1652 77.9 68.7321 75.9848 68.7321C74.0696 68.7321 72.5027 67.1652 72.5027 65.25C72.5027 63.3348 74.0696 61.7679 75.9848 61.7679C77.9 61.7679 79.467 63.3348 79.467 65.25ZM82.9491 63.1607C82.9491 60.4621 80.7728 58.2857 78.0741 58.2857H77.4647L75.1796 49.1669C74.5049 46.4247 71.8498 44.3571 69.0205 44.3571H52.3062C49.477 44.3571 46.8219 46.4247 46.1472 49.1669L43.862 58.2857H43.2527C40.554 58.2857 38.3777 60.4621 38.3777 63.1607L38.3777 71.5179C38.3777 71.9096 38.6824 72.2143 39.0741 72.2143H41.1634L41.1634 75C41.1634 77.3069 43.035 79.1786 45.342 79.1786C47.6489 79.1786 49.5205 77.3069 49.5205 75V72.2143H71.8062V75C71.8062 77.3069 73.6779 79.1786 75.9848 79.1786C78.2917 79.1786 80.1634 77.3069 80.1634 75V72.2143H82.2527C82.6444 72.2143 82.9491 71.9096 82.9491 71.5179V63.1607Z" fill="black"/>
</g>
<defs>
<filter id="filter0_d" x="0" y="0" width="122" height="122" filterUnits="userSpaceOnUse" color-interpolation-filters="sRGB">
<feFlood flood-opacity="0" result="BackgroundImageFix"/>
<feColorMatrix in="SourceAlpha" type="matrix" values="0 0 0 0 0 0 0 0 0 0 0 0 0 0 0 0 0 0 127 0"/>
<feOffset/>
<feGaussianBlur stdDeviation="8"/>
<feColorMatrix type="matrix" values="0 0 0 0 0 0 0 0 0 0 0 0 0 0 0 0 0 0 0.25 0"/>
<feBlend mode="normal" in2="BackgroundImageFix" result="effect1_dropShadow"/>
<feBlend mode="normal" in="SourceGraphic" in2="effect1_dropShadow" result="shape"/>
</filter>
</defs>
</svg>
