<svg width="122" height="122" viewBox="0 0 122 122" fill="none" xmlns="http://www.w3.org/2000/svg">
<g filter="url(#filter0_d)">
<circle cx="61" cy="61" r="45" fill="white"/>
</g>
<path d="M57.408 72.5859C57.4548 69.7969 57.7712 67.5938 58.3572 65.9766C58.9431 64.3594 60.1384 62.5664 61.9431 60.5977L66.5486 55.8516C68.5173 53.625 69.5017 51.2344 69.5017 48.6797C69.5017 46.2188 68.8572 44.2969 67.5681 42.9141C66.2791 41.5078 64.4041 40.8047 61.9431 40.8047C59.5525 40.8047 57.6306 41.4375 56.1775 42.7031C54.7244 43.9688 53.9978 45.668 53.9978 47.8008H47.4939C47.5408 44.0039 48.8884 40.9453 51.5369 38.625C54.2087 36.2812 57.6775 35.1094 61.9431 35.1094C66.3728 35.1094 69.8181 36.3047 72.2791 38.6953C74.7634 41.0625 76.0056 44.3203 76.0056 48.4688C76.0056 52.5703 74.1072 56.6133 70.3103 60.5977L66.4783 64.3945C64.7673 66.293 63.9119 69.0234 63.9119 72.5859H57.408ZM57.1267 83.7305C57.1267 82.6758 57.4431 81.7969 58.0759 81.0938C58.7322 80.3672 59.6931 80.0039 60.9587 80.0039C62.2244 80.0039 63.1853 80.3672 63.8416 81.0938C64.4978 81.7969 64.8259 82.6758 64.8259 83.7305C64.8259 84.7852 64.4978 85.6641 63.8416 86.3672C63.1853 87.0469 62.2244 87.3867 60.9587 87.3867C59.6931 87.3867 58.7322 87.0469 58.0759 86.3672C57.4431 85.6641 57.1267 84.7852 57.1267 83.7305Z" fill="black"/>
<defs>
<filter id="filter0_d" x="0" y="0" width="122" height="122" filterUnits="userSpaceOnUse" color-interpolation-filters="sRGB">
<feFlood flood-opacity="0" result="BackgroundImageFix"/>
<feColorMatrix in="SourceAlpha" type="matrix" values="0 0 0 0 0 0 0 0 0 0 0 0 0 0 0 0 0 0 127 0"/>
<feOffset/>
<feGaussianBlur stdDeviation="8"/>
<feColorMatrix type="matrix" values="0 0 0 0 0 0 0 0 0 0 0 0 0 0 0 0 0 0 0.25 0"/>
<feBlend mode="normal" in2="BackgroundImageFix" result="effect1_dropShadow"/>
<feBlend mode="normal" in="SourceGraphic" in2="effect1_dropShadow" result="shape"/>
</filter>
</defs>
</svg>
