<svg width="122" height="122" viewBox="0 0 122 122" fill="none" xmlns="http://www.w3.org/2000/svg">
<g filter="url(#filter0_d)">
<circle cx="61" cy="61" r="45" fill="white"/>
</g>
<path d="M88.5 67.5H38.8852C38.6307 67.5 38.3786 67.4515 38.1424 67.357L32.2572 65.0029C31.4979 64.6992 31 63.9637 31 63.1459V56.4921C31 55.867 31.2922 55.2779 31.7898 54.8997L42.9636 46.4077C43.3116 46.1432 43.7367 46 44.1738 46H60.7117C61.2183 46 61.706 46.1922 62.0763 46.5379L68.5194 52.5514C68.8316 52.8428 69.2288 53.0266 69.653 53.0759L88.731 55.2943C89.7394 55.4116 90.5 56.2657 90.5 57.2809V65.5C90.5 66.6046 89.6046 67.5 88.5 67.5Z" fill="black" stroke="black"/>
<circle cx="43.5" cy="68.5" r="6.5" fill="black" stroke="white" stroke-width="2"/>
<circle cx="76.5" cy="68.5" r="6.5" fill="black" stroke="white" stroke-width="2"/>
<defs>
<filter id="filter0_d" x="0" y="0" width="122" height="122" filterUnits="userSpaceOnUse" color-interpolation-filters="sRGB">
<feFlood flood-opacity="0" result="BackgroundImageFix"/>
<feColorMatrix in="SourceAlpha" type="matrix" values="0 0 0 0 0 0 0 0 0 0 0 0 0 0 0 0 0 0 127 0"/>
<feOffset/>
<feGaussianBlur stdDeviation="8"/>
<feColorMatrix type="matrix" values="0 0 0 0 0 0 0 0 0 0 0 0 0 0 0 0 0 0 0.25 0"/>
<feBlend mode="normal" in2="BackgroundImageFix" result="effect1_dropShadow"/>
<feBlend mode="normal" in="SourceGraphic" in2="effect1_dropShadow" result="shape"/>
</filter>
</defs>
</svg>
