<svg width="214" height="53" viewBox="0 0 214 53" fill="none" xmlns="http://www.w3.org/2000/svg">
<path d="M0.308594 53V1.35547H19.3984C22 1.35547 24.25 1.47266 26.1484 1.70703C28.0703 1.94141 29.8867 2.375 31.5977 3.00781C33.332 3.61719 34.7266 4.44922 35.7812 5.50391C36.8594 6.55859 37.7031 7.94141 38.3125 9.65234C38.9453 11.3398 39.2617 13.3438 39.2617 15.6641C39.2617 22.5078 36.1562 27.0078 29.9453 29.1641C31.2109 30.5938 32.7812 33.2422 34.6562 37.1094L42.3203 53H31.9141L25.9023 39.5352C23.6289 34.707 22.2227 31.8477 21.6836 30.957C21.2852 30.9336 19.9609 30.9219 17.7109 30.9219L9.73047 30.8516V53H0.308594ZM20.2422 24.0312C23.8984 24.0312 26.5234 23.3867 28.1172 22.0977C29.7109 20.7852 30.5078 18.6875 30.5078 15.8047C30.5078 13.2734 29.6992 11.4102 28.082 10.2148C26.4648 9.01953 23.9922 8.42188 20.6641 8.42188H9.73047V23.9961C10.082 23.9961 11.8281 24.0078 14.9688 24.0312C18.1094 24.0312 19.8672 24.0312 20.2422 24.0312ZM72.3038 9.872C68.2238 9.872 64.9838 11.12 62.5838 13.616C60.2318 16.112 59.0558 19.784 59.0558 24.632C59.0558 28.76 59.7278 32.408 61.0718 35.576C62.4158 38.696 64.8638 41.24 68.4158 43.208V53H45.9518V43.856H58.9838C55.6238 41.792 52.9118 38.888 50.8478 35.144C48.8318 31.4 47.8238 27.128 47.8238 22.328C47.8238 17.96 48.8078 14.168 50.7758 10.952C52.7918 7.736 55.6238 5.24 59.2718 3.464C62.9678 1.688 67.3118 0.799998 72.3038 0.799998C77.3438 0.799998 81.6878 1.688 85.3358 3.464C88.9838 5.24 91.7918 7.76 93.7598 11.024C95.7758 14.24 96.7838 18.032 96.7838 22.4C96.7838 27.2 95.7518 31.448 93.6878 35.144C91.6718 38.84 88.9358 41.744 85.4798 43.856H98.6558V53H76.0478V43.208C79.6478 41.336 82.1198 38.792 83.4638 35.576C84.8558 32.312 85.5518 28.64 85.5518 24.56C85.5518 19.76 84.3758 16.112 82.0238 13.616C79.6718 11.12 76.4318 9.872 72.3038 9.872ZM106.164 53V1.49609H115.691V22.5547H138.965V1.49609H148.492V53H138.965V30.0781H115.691V53H106.164ZM159.602 53V1.49609H170.852L186.426 38.6914L202.105 1.49609H213.215V53H204.426V27.5469L204.707 12.957L203.406 16.8242L190.223 49.4844H182.066L169.164 16.6484L167.863 12.7812L168.18 27.6875V53H159.602Z" fill="black"/>
</svg>
